<?xml version="1.0" encoding="UTF-8" standalone="no"?>
<svg
   xmlns:dc="http://purl.org/dc/elements/1.1/"
   xmlns:cc="http://creativecommons.org/ns#"
   xmlns:rdf="http://www.w3.org/1999/02/22-rdf-syntax-ns#"
   xmlns:svg="http://www.w3.org/2000/svg"
   xmlns="http://www.w3.org/2000/svg"
   xmlns:sodipodi="http://sodipodi.sourceforge.net/DTD/sodipodi-0.dtd"
   xmlns:inkscape="http://www.inkscape.org/namespaces/inkscape"
   width="210mm"
   height="297mm"
   viewBox="0 0 210 297"
   version="1.1"
   id="svg8"
   inkscape:version="1.0.2 (e86c870879, 2021-01-15, custom)"
   sodipodi:docname="white-logo-bookmark.svg">
  <defs
     id="defs2" />
  <sodipodi:namedview
     id="base"
     pagecolor="#ffffff"
     bordercolor="#666666"
     borderopacity="1.0"
     inkscape:pageopacity="0.0"
     inkscape:pageshadow="2"
     inkscape:zoom="3.959798"
     inkscape:cx="195.50517"
     inkscape:cy="434.86127"
     inkscape:document-units="mm"
     inkscape:current-layer="layer1"
     inkscape:document-rotation="0"
     showgrid="false"
     inkscape:window-width="1280"
     inkscape:window-height="904"
     inkscape:window-x="0"
     inkscape:window-y="81"
     inkscape:window-maximized="0" />
  <metadata
     id="metadata5">
    <rdf:RDF>
      <cc:Work
         rdf:about="">
        <dc:format>image/svg+xml</dc:format>
        <dc:type
           rdf:resource="http://purl.org/dc/dcmitype/StillImage" />
        <dc:title></dc:title>
      </cc:Work>
    </rdf:RDF>
  </metadata>
  <g
     inkscape:label="Layer 1"
     inkscape:groupmode="layer"
     id="layer1">
    <g
       id="g41">
      <path
         d="m 29.553807,108.72837 h 1.382977 c 0.197379,0 0.379413,0.041 0.545571,0.1233 0.166423,0.0823 0.297127,0.19446 0.392642,0.33602 0.09551,0.14155 0.143404,0.29633 0.143404,0.46408 0,0.1778 -0.04366,0.33178 -0.130969,0.46196 -0.08731,0.12991 -0.201612,0.22966 -0.343164,0.29871 v 0.0397 c 0.184414,0.0656 0.330729,0.17013 0.439473,0.31353 0.108479,0.14314 0.162983,0.31512 0.162983,0.51594 0,0.19447 -0.05186,0.36645 -0.155575,0.5162 a 1.0099146,1.0099146 0 0 1 -0.419894,0.34581 c -0.175948,0.0807 -0.37121,0.12092 -0.585258,0.12092 h -1.43219 z m 1.3335,1.44198 c 0.144992,0 0.260879,-0.0402 0.348192,-0.12092 0.08731,-0.0807 0.130969,-0.18203 0.130969,-0.30374 0,-0.11853 -0.04207,-0.21801 -0.125942,-0.29898 -0.08414,-0.0804 -0.195263,-0.12091 -0.333375,-0.12091 h -0.686594 v 0.84455 z m 0.07408,1.48669 c 0.161395,0 0.287337,-0.0421 0.377825,-0.12594 0.09049,-0.0839 0.135731,-0.19341 0.135731,-0.32835 0,-0.13493 -0.04604,-0.24527 -0.138113,-0.33099 -0.09234,-0.0857 -0.224102,-0.12832 -0.395287,-0.12832 h -0.72099 v 0.9136 z m 3.420268,0.6866 c -0.34581,0 -0.659341,-0.0815 -0.940858,-0.24448 a 1.7756187,1.7756187 0 0 1 -0.664369,-0.66939 c -0.161396,-0.28311 -0.242094,-0.59426 -0.242094,-0.93345 0,-0.33894 0.0807,-0.65009 0.242094,-0.93345 a 1.7756187,1.7756187 0 0 1 0.664104,-0.66914 c 0.282046,-0.16298 0.595313,-0.24447 0.941388,-0.24447 0.345546,0 0.659341,0.0815 0.940858,0.24447 a 1.7756187,1.7756187 0 0 1 0.664104,0.6694 c 0.161396,0.2831 0.242094,0.59425 0.242094,0.93319 0,0.33919 -0.0807,0.65034 -0.242094,0.93345 a 1.7756187,1.7756187 0 0 1 -0.664104,0.66939 c -0.281517,0.16299 -0.595312,0.24448 -0.940858,0.24448 z m 0,-0.63236 a 1.1959167,1.1959167 0 0 0 0.597429,-0.15293 1.1051646,1.1051646 0 0 0 0.427302,-0.42968 c 0.103717,-0.18441 0.155575,-0.39529 0.155575,-0.63235 0,-0.23707 -0.05186,-0.44768 -0.155575,-0.63209 a 1.1051646,1.1051646 0 0 0 -0.427302,-0.42969 1.1959167,1.1959167 0 0 0 -0.597429,-0.15319 1.1826875,1.1826875 0 0 0 -0.595312,0.15319 1.1099271,1.1099271 0 0 0 -0.424657,0.42969 c -0.103716,0.18441 -0.155575,0.39502 -0.155575,0.63235 0,0.2368 0.05186,0.44768 0.155575,0.63209 a 1.1099271,1.1099271 0 0 0 0.424657,0.42968 1.1826875,1.1826875 0 0 0 0.595312,0.15293 z m 4.062148,0.63236 c -0.34581,0 -0.659342,-0.0815 -0.940858,-0.24448 a 1.7756187,1.7756187 0 0 1 -0.664104,-0.66939 c -0.161396,-0.28311 -0.242094,-0.59426 -0.242094,-0.93345 0,-0.33894 0.0807,-0.65009 0.241829,-0.93345 a 1.7756187,1.7756187 0 0 1 0.664369,-0.66914 c 0.281516,-0.16298 0.595312,-0.24447 0.940858,-0.24447 0.345811,0 0.659342,0.0815 0.940858,0.24447 a 1.7756187,1.7756187 0 0 1 0.664105,0.6694 c 0.161395,0.2831 0.242093,0.59425 0.242093,0.93319 0,0.33919 -0.0807,0.65034 -0.241829,0.93345 a 1.7756187,1.7756187 0 0 1 -0.664369,0.66939 c -0.281516,0.16299 -0.595312,0.24448 -0.940858,0.24448 z m 0,-0.63236 a 1.1959167,1.1959167 0 0 0 0.597694,-0.15293 1.1051646,1.1051646 0 0 0 0.427037,-0.42968 c 0.103717,-0.18441 0.155575,-0.39529 0.155575,-0.63235 0,-0.23707 -0.05186,-0.44768 -0.155575,-0.63209 a 1.1051646,1.1051646 0 0 0 -0.427037,-0.42969 1.1959167,1.1959167 0 0 0 -0.597694,-0.15319 1.1826875,1.1826875 0 0 0 -0.595312,0.15319 1.1099271,1.1099271 0 0 0 -0.424657,0.42969 c -0.103716,0.18441 -0.155575,0.39502 -0.155575,0.63235 0,0.2368 0.05186,0.44768 0.155575,0.63209 a 1.1099271,1.1099271 0 0 0 0.424921,0.42968 1.1826875,1.1826875 0 0 0 0.595048,0.15293 z m 2.442104,-2.98265 h 0.66675 v 1.51607 h 0.03969 l 1.293812,-1.51607 h 0.805127 v 0.0394 l -1.278731,1.46156 1.412346,1.99548 v 0.0394 h -0.814917 l -1.056746,-1.50628 -0.40005,0.46911 v 1.03717 h -0.66675 v -3.53616 z m 3.690673,-0.0794 h 0.859367 l 0.938212,2.48444 h 0.03969 l 0.937948,-2.48444 h 0.864393 v 3.53616 h -0.661723 v -1.74334 l 0.03969,-0.58764 h -0.03969 l -0.899054,2.33098 H 46.13683 l -0.903817,-2.33098 h -0.03942 l 0.03969,0.58764 v 1.7436 h -0.65696 v -3.53642 z m 5.503333,0 h 0.765705 l 1.328472,3.53616 h -0.735806 l -0.296333,-0.84455 h -1.353344 l -0.296333,0.84455 h -0.735806 z m 0.844815,2.07936 -0.31115,-0.889 -0.128588,-0.42492 h -0.03942 l -0.128323,0.42492 -0.316177,0.889 h 0.923395 z m 1.79414,-2.07936 h 1.289049 c 0.230453,0 0.435505,0.0476 0.614892,0.14314 0.179388,0.0955 0.318558,0.22807 0.417248,0.39767 0.09895,0.16933 0.148167,0.36142 0.148167,0.57547 0,0.22701 -0.07144,0.42862 -0.214842,0.60483 a 1.2215812,1.2215812 0 0 1 -0.540808,0.38286 l -0.0048,0.0344 0.948267,1.35837 v 0.0397 h -0.765704 l -0.913607,-1.32874 h -0.31115 v 1.32848 h -0.666749 z m 1.284022,1.59544 c 0.151607,0 0.275167,-0.0463 0.370417,-0.13838 0.09551,-0.0923 0.143404,-0.20902 0.143404,-0.35084 0,-0.13493 -0.04551,-0.25003 -0.135996,-0.34554 -0.09049,-0.0955 -0.213254,-0.14341 -0.36777,-0.14341 h -0.627328 v 0.9779 h 0.617273 z m 1.912938,-1.59544 h 0.66675 v 1.51606 h 0.03969 l 1.293813,-1.51606 h 0.805127 v 0.0397 l -1.27926,1.46182 1.412875,1.99522 v 0.0397 h -0.814917 l -1.057275,-1.50654 -0.40005,0.46911 v 1.03717 h -0.66675 z"
         fill="#242a45"
         fill-rule="nonzero"
         id="path10"
         style="stroke-width:0.264583;fill:#ffffff" />
      <g
         id="g16"
         style="fill:none;fill-rule:evenodd"
         transform="matrix(0.26458333,0,0,0.26458333,19.764224,107.06176)">
        <circle
           fill="#5267df"
           cx="12.5"
           cy="12.5"
           r="12.5"
           id="circle12" />
        <path
           d="M 9,9 V 19 L 12.54,15.56 16.078,19 V 9 a 2,2 0 0 0 -2,-2 H 11 A 2,2 0 0 0 9,9 Z"
           fill="#ffffff"
           id="path14" />
      </g>
    </g>
  </g>
</svg>
